<svg width="619" height="968" viewBox="0 0 619 968" xmlns="http://www.w3.org/2000/svg"><g fill="none" fill-rule="evenodd"><path d="M110.538 199C110.538 345 416 221 487 317" stroke="#FFF" stroke-width="10" stroke-linecap="round" stroke-dasharray="1,20"/><path d="M479 513c-48 58-202-51-287 8" stroke="#FFF" stroke-width="10" opacity=".5" stroke-linecap="round" stroke-dasharray="1,20"/><path d="M425 895c-82 76-317-41-333.918 77" stroke="#FFF" stroke-width="10" opacity=".199" stroke-linecap="round" stroke-dasharray="1,20"/><path d="M122.5 689c143.5 63 155.75-37 311.5 6" stroke="#FFF" stroke-width="10" opacity=".4" stroke-linecap="round" stroke-dasharray="1,20"/><g transform="translate(7 7)" fill-rule="nonzero"><circle stroke="#FFF" stroke-width="13" fill="#273B7A" cx="132.5" cy="132.5" r="132.5"/><path d="M155.177 254c43.655-8.205 79.2-38.537 93.823-78.532L131.368 61l-.716 27.21-24.89-24.22 3.44 58.1L99 112.16l3.395 39.31 25.74 32.483-25.74 18.683L155.177 254zm-25.774-112.443l-.002.063-.063-.063h.066z" fill="#121149"/><path d="M97.997 107.883S91.9 107.48 92 113.22c0 0 3.387 22.884 3.872 30.575.523 8.305 3.262 16.303 9.07 22.187l4.292 4.35V193h41.148v-21.478l3.465-3.51c6.337-6.424 9.897-15.135 9.897-24.218L165 107.52c0-3.71-2.818-6.942-6.476-7.053-3.783-.115-6.886 2.96-6.886 6.768l-1.256 7.998h-1.73l1.516-15.445c0-3.437-2.42-6.514-5.783-6.964-4.07-.546-7.58 2.687-7.58 6.71l-1.516 15.7h-2.165l.836-58.21c0-3.437-2.42-6.513-5.78-6.964-4.07-.545-7.58 2.687-7.58 6.71l-.837 58.464h-2.165l-9.564-54.14c0-3.438-2.42-6.514-5.783-6.964-4.07-.546-7.578 2.687-7.578 6.71l9.564 76.955h-2.367l-3.873-29.912z" fill="#FEE187"/><path d="M159.388 100.464c-3.863-.115-7.032 2.96-7.032 6.768l-1.282 8h-1.768l1.55-15.447c0-3.437-2.473-6.514-5.905-6.964-4.155-.545-7.738 2.688-7.738 6.712l-1.55 15.7h-2.21l.855-58.21c0-3.44-2.47-6.515-5.904-6.966-.478-.063-.946-.07-1.403-.037V193h24.075v-21.478l3.538-3.512c6.47-6.423 10.105-15.134 10.105-24.217L166 107.516c0-3.708-2.878-6.942-6.612-7.052z" fill="#FFC61B"/><path fill="#D35933" d="M102 182h57v24h-57z"/><path fill="#B54324" d="M127 182h31v24h-31z"/></g><g opacity=".6" transform="translate(421 322)" fill-rule="nonzero"><circle fill="#273B7A" cx="88.5" cy="88.5" r="88.5"/><path d="M118.946 171c27.586-9.864 48.833-32.87 56.054-61.4l-54.364-53.893-1.55 1.74-7.36-7.447-7.292 7.17-1.45-1.598-22.576 5.49-6.152 5.915-8.875 5.82-13.61-13.494-5.34 6.775 11.626 11.524L38 90.754 118.946 171z" fill="#121149"/><path d="M41 86.716h17.794l1.895 1.89C64.155 92.06 68.856 94 73.76 94h32.54c2.02 0 3.656-1.63 3.656-3.642 0-2.01-1.636-3.642-3.655-3.642h-9.965v-.944h24.584c2.01 0 3.653-1.64 3.653-3.643 0-2.004-1.644-3.643-3.654-3.643H96.334v-1.18h30.01c2.01 0 3.655-1.64 3.655-3.642 0-2.003-1.644-3.642-3.654-3.642h-30.01v-1.18h24.583c2.01 0 3.653-1.64 3.653-3.642s-1.644-3.64-3.654-3.64H99.917c-.88 1.62-2.603 2.724-4.58 2.724H88.03c-1.425 0-2.584 1.155-2.584 2.575v1.986c0 5.517-4.504 10.006-10.04 10.006h-6.128v-3.09h6.128c3.826 0 6.94-3.103 6.94-6.916V66.86c0-3.124 2.55-5.666 5.684-5.666h7.31c1.16 0 2.103-.94 2.103-2.097S96.5 57 95.34 57H73.76c-4.523 0-8.776 1.755-11.974 4.943l-2.348 2.34H41v22.433z" fill="#FFEDB5"/><path d="M125.506 77.03c.965 0 1.843-.393 2.494-1.03H81.682c-1.76 1.612-4.074 2.602-6.616 2.602h-6.068V76H41v10.595h17.62l1.875 1.92C63.928 92.028 68.583 94 73.437 94h32.222c1.997 0 3.617-1.658 3.617-3.703 0-2.044-1.62-3.702-3.618-3.702h-9.87v-.96h24.343c1.99 0 3.618-1.667 3.618-3.703 0-2.036-1.627-3.703-3.617-3.703H95.79v-1.2h29.715z" fill="#FEE187"/><path d="M91 84.45v22.966c0 4.665 1.826 9.14 5.078 12.438l2.403 2.44V135h23.04v-12.04l1.94-1.97c3.547-3.6 5.54-8.482 5.54-13.574V73.774c0-2.078-1.578-3.89-3.625-3.953-2.12-.064-3.855 1.66-3.855 3.795v13.573h-.97V58.574c0-1.927-1.356-3.65-3.237-3.904-2.28-.307-4.243 1.506-4.243 3.762v28.756h-1.212v-34.25c0-1.927-1.355-3.65-3.238-3.904-2.278-.306-4.243 1.506-4.243 3.762v34.392h-1.212V58.574c0-1.927-1.355-3.65-3.237-3.904-2.28-.307-4.244 1.506-4.244 3.762v21.813c1.666.916 2.8 2.704 2.8 4.757v15.812h-1.588V84.45c0-1.652-1.32-2.99-2.947-2.99-1.63 0-2.95 1.34-2.95 2.99z" fill="#EAA22F"/><path d="M125.49 69.813c-2.05-.065-3.73 1.66-3.73 3.794v13.575h-.94V58.564c0-1.927-1.31-3.652-3.133-3.905-2.205-.307-4.106 1.506-4.106 3.762v28.76h-1.17V52.927c0-1.927-1.313-3.652-3.135-3.905-.092-.012-.184-.016-.275-.022v86h12.76v-12.042l1.877-1.97c3.434-3.6 5.363-8.483 5.363-13.576V73.766c-.002-2.08-1.53-3.89-3.51-3.953z" fill="#E09112"/><path fill="#D35933" d="M95 128h31v13H95z"/><path fill="#B54324" d="M109 128h18v13h-18z"/><path fill="#D35933" d="M38 59h13v31H38z"/><path fill="#B54324" d="M38 76h13v15H38z"/></g><g opacity=".396" transform="translate(34 499)" fill-rule="nonzero"><circle fill="#273B7A" cx="88.5" cy="88.5" r="88.5"/><path d="M177 93.175L126.212 42 79.126 99.377 50 137.585 89.118 177c46.99 0 85.378-37.106 87.882-83.825z" fill="#121149"/><path d="M59 137h60.537c4.674 0 8.463-3.767 8.463-8.414V47.414c0-4.647-3.79-8.414-8.463-8.414H59v98z" fill="#FFC61B"/><path d="M59 89v50h60.536c4.675 0 8.464-3.83 8.464-8.552V89H59z" fill="#EAA22F"/><path fill="#D35933" d="M113 73l-10-4.857L93 73V39h20"/><path fill="#B54324" d="M102 39v29.283l.28-.14L112 73V39"/><path fill="#FF5419" d="M50 39h20v98H50z"/><path fill="#C92F00" d="M50 89h20v50H50z"/><g fill="#FFEDB5"><path d="M79.19 102.13h38.585v3.554H79.19zM79.19 109.24h38.585v3.555H79.19z"/></g></g><g opacity=".204" transform="translate(344 705)" fill-rule="nonzero"><circle fill="#273B7A" cx="88.5" cy="88.5" r="88.5"/><path d="M56 141.724L91.323 177c46.67-1.31 84.27-38.866 85.677-85.53L122.55 37l-33.745 2.874-32.66 4.24 30.68 30.692V85.35l-17.27-3.293 17.27 17.276.148 10.18L56 141.722z" fill="#121149"/><path d="M116 60.798V42H61v18.798C61 73.2 68.813 83.726 79.666 87.5 68.814 91.274 61 101.8 61 114.202V133h55v-18.798c0-12.403-7.813-22.928-18.666-26.702C108.186 83.726 116 73.2 116 60.798z" fill="#71E2EF"/><path d="M116 60.8V42H89v91h27v-18.798c0-12.403-7.727-22.928-18.46-26.702C108.27 83.727 116 73.202 116 60.8z" fill="#38C6D9"/><path fill="#FFEDB5" d="M67 134h42l-17.582-23.48V88.585L106.078 74H72.425l12.934 14.586v21.933"/><path fill="#FEE187" d="M92.094 110.52V88.585L106.192 74H89v60h20"/><path d="M117.203 46H59.796C56.596 46 54 43.314 54 40s2.595-6 5.796-6h57.408c3.2 0 5.796 2.686 5.796 6s-2.596 6-5.797 6z" fill="#D35933"/><path d="M117.255 34H89v12h28.255c3.173 0 5.745-2.687 5.745-6 0-3.314-2.572-6-5.745-6z" fill="#B54324"/><path d="M117.203 144H59.796c-3.2 0-5.796-2.686-5.796-6s2.595-6 5.796-6h57.408c3.2 0 5.796 2.686 5.796 6s-2.596 6-5.797 6z" fill="#D35933"/><path d="M117.255 132H89v12h28.255c3.173 0 5.745-2.687 5.745-6s-2.572-6-5.745-6z" fill="#B54324"/></g><path d="M350.252 112V85.984h16.365v3.57h-10.95v7.91h9v3.585h-9V112h-5.415zm29.275.44c-3.01 0-5.405-.912-7.18-2.734-1.776-1.822-2.663-4.274-2.663-7.356 0-3.118.893-5.58 2.68-7.383 1.787-1.805 4.216-2.707 7.286-2.707 3.082 0 5.517.902 7.304 2.707 1.787 1.804 2.68 4.254 2.68 7.347 0 3.165-.896 5.643-2.69 7.436-1.792 1.793-4.264 2.69-7.417 2.69zm.088-3.252c2.99 0 4.483-2.29 4.483-6.874 0-2.097-.396-3.755-1.187-4.974-.79-1.22-1.877-1.828-3.26-1.828-1.37 0-2.452.61-3.243 1.828-.79 1.22-1.186 2.89-1.186 5.01 0 2.097.393 3.76 1.178 4.992.786 1.23 1.858 1.846 3.217 1.846zM406.852 112v-3.64c-1.688 2.72-3.88 4.08-6.575 4.08-1.722 0-3.082-.545-4.078-1.635-.997-1.09-1.495-2.578-1.495-4.465V92.7h5.203v12.357c0 2.19.733 3.287 2.197 3.287 1.64 0 3.223-1.166 4.747-3.498V92.7h5.203V112h-5.203zm12.207 0V92.7h5.202v3.638c1.7-2.72 3.89-4.078 6.574-4.078 1.723 0 3.082.545 4.078 1.635.996 1.09 1.494 2.578 1.494 4.464V112h-5.203V99.643c0-2.192-.726-3.288-2.18-3.288-1.652 0-3.24 1.166-4.763 3.5V112h-5.203zm36.288 0v-3.64c-1.336 2.72-3.44 4.08-6.31 4.08-2.32 0-4.143-.85-5.468-2.55-1.324-1.7-1.986-4.036-1.986-7.013 0-3.234.747-5.813 2.24-7.734 1.495-1.922 3.502-2.883 6.022-2.883 2.015 0 3.85.797 5.502 2.39V84.244h5.22V112h-5.22zm0-14.256c-1.254-1.406-2.596-2.11-4.026-2.11-1.277 0-2.297.616-3.058 1.846-.762 1.23-1.143 2.883-1.143 4.957 0 3.95 1.267 5.924 3.798 5.924 1.547 0 3.023-.99 4.43-2.97v-7.646zm21.664 12.182c-1.735 1.676-3.592 2.513-5.573 2.513-1.688 0-3.06-.516-4.114-1.547-1.055-1.032-1.582-2.368-1.582-4.008 0-2.133.853-3.777 2.558-4.93 1.705-1.155 4.145-1.732 7.32-1.732h1.39v-1.758c0-2.004-1.143-3.006-3.428-3.006-2.027 0-4.078.573-6.152 1.722v-3.586c2.355-.89 4.687-1.336 6.996-1.336 5.05 0 7.576 2.01 7.576 6.03v8.542c0 1.512.486 2.268 1.46 2.268.175 0 .403-.024.684-.07l.123 2.917c-1.1.328-2.073.492-2.916.492-2.133 0-3.504-.838-4.114-2.514h-.228zm0-2.795v-3.92h-1.23c-3.364 0-5.046 1.056-5.046 3.165 0 .715.243 1.315.73 1.802.486.486 1.087.73 1.802.73 1.218 0 2.466-.593 3.744-1.776zm22.156 4.765c-1.242.363-2.22.544-2.936.544-4.51 0-6.767-2.11-6.767-6.33V95.95h-2.162V92.7h2.162v-3.253l5.203-.597v3.85h4.13v3.25h-4.13v9.476c0 2.367.967 3.55 2.9 3.55.446 0 .98-.08 1.6-.246v3.165zm5.14.105V92.7h5.204V112h-5.203zm0-22.553v-4.342h5.204v4.342h-5.203zm20.31 22.992c-3.01 0-5.404-.912-7.18-2.734-1.775-1.822-2.663-4.274-2.663-7.356 0-3.118.894-5.58 2.68-7.383 1.788-1.805 4.217-2.707 7.287-2.707 3.082 0 5.517.902 7.304 2.707 1.787 1.804 2.68 4.254 2.68 7.347 0 3.165-.896 5.643-2.69 7.436-1.792 1.793-4.264 2.69-7.417 2.69zm.09-3.252c2.987 0 4.48-2.29 4.48-6.874 0-2.097-.394-3.755-1.185-4.974-.79-1.22-1.878-1.828-3.26-1.828-1.372 0-2.453.61-3.244 1.828-.792 1.22-1.188 2.89-1.188 5.01 0 2.097.393 3.76 1.178 4.992.785 1.23 1.858 1.846 3.217 1.846zm15.3 2.812V92.7h5.203v3.638c1.7-2.72 3.892-4.078 6.575-4.078 1.723 0 3.082.545 4.078 1.635.996 1.09 1.494 2.578 1.494 4.464V112h-5.203V99.643c0-2.192-.726-3.288-2.18-3.288-1.652 0-3.24 1.166-4.763 3.5V112h-5.202zm36.877 0l1.88-7.488h-4.816l.51-2.602h4.956l1.46-5.853h-5.24l.51-2.602h5.38l1.88-7.47h2.672l-1.863 7.47h4.605l1.864-7.47h2.69l-1.864 7.47h4.8l-.51 2.602h-4.94l-1.477 5.853h5.256l-.53 2.602h-5.378L586.87 112h-2.69l1.88-7.488h-4.622L579.573 112h-2.69zm5.203-10.09h4.623l1.46-5.853h-4.606l-1.476 5.853zM602.574 112v-3.04h5.203V89.763l-5.203 1.3v-3.128l10.424-2.602v23.625h5.203V112h-15.626zm-248.842 43l-6.697-26.016h3.55l5.327 20.55 4.904-20.55h3.55l4.642 20.268 5.73-20.268h3.006L370.45 155h-3.675l-4.587-20.057-4.8 20.057h-3.656zm37.872-2.426c-2.075 1.91-4.073 2.865-5.995 2.865-1.583 0-2.895-.496-3.938-1.486-1.043-.99-1.565-2.24-1.565-3.753 0-2.085.876-3.687 2.628-4.806 1.752-1.12 4.263-1.68 7.533-1.68h.826v-2.302c0-2.215-1.137-3.322-3.41-3.322-1.83 0-3.803.562-5.924 1.687v-2.865c2.332-.95 4.517-1.424 6.556-1.424 2.133 0 3.706.48 4.72 1.442 1.014.96 1.52 2.455 1.52 4.482v8.65c0 1.98.61 2.97 1.83 2.97.15 0 .374-.024.667-.07l.246 1.915c-.786.375-1.654.562-2.603.562-1.617 0-2.648-.956-3.093-2.866zm-.51-1.88v-4.94l-1.16-.035c-1.9 0-3.434.36-4.606 1.08-1.172.72-1.758 1.667-1.758 2.84 0 .83.293 1.534.88 2.108.585.574 1.3.86 2.144.86 1.44 0 2.94-.637 4.5-1.915zM402.14 155v-19.09h3.464v3.586c1.37-2.672 3.363-4.008 5.976-4.008.352 0 .72.03 1.108.088v3.235c-.598-.2-1.125-.298-1.583-.298-2.19 0-4.025 1.3-5.5 3.902V155h-3.464zm27.167 0v-3.586c-1.84 2.684-4.073 4.025-6.698 4.025-1.665 0-2.99-.525-3.973-1.574-.985-1.05-1.477-2.464-1.477-4.245v-13.71h3.463v12.586c0 1.43.208 2.446.624 3.05.416.603 1.11.905 2.083.905 2.11 0 4.102-1.387 5.977-4.165V135.91h3.463V155h-3.463zm10.906 0v-19.09h3.463v3.586c1.687-2.672 3.855-4.008 6.504-4.008 2.554 0 4.295 1.336 5.22 4.008 1.64-2.684 3.774-4.025 6.4-4.025 1.686 0 2.993.496 3.92 1.486.925.99 1.387 2.376 1.387 4.157V155h-3.48v-13.342c0-2.18-.86-3.27-2.584-3.27-1.793 0-3.674 1.272-5.643 3.815V155h-3.48v-13.342c0-2.19-.88-3.287-2.637-3.287-1.746 0-3.615 1.278-5.607 3.833V155h-3.463zm48.215 0l-5.467-19.09h3.394l4.183 14.783 4.518-14.783h3.463l3.955 14.783 4.798-14.783h2.972L504.02 155h-3.48l-4.044-14.783-4.57 14.783h-3.498zm26.023 0v-19.09h3.464V155h-3.463zm0-22.553v-3.463h3.464v3.463h-3.463zM525.358 155v-27.756h3.463V155h-3.463zm10.907 0v-27.756h3.463V155h-3.463zm15.968.44c-1.582 0-3.503-.37-5.765-1.108v-3.182c2.262 1.125 4.23 1.688 5.906 1.688.996 0 1.822-.27 2.48-.81.655-.538.983-1.212.983-2.02 0-1.184-.92-2.162-2.76-2.936l-2.02-.86c-2.99-1.243-4.484-3.03-4.484-5.362 0-1.664.59-2.974 1.767-3.93 1.177-.954 2.79-1.432 4.842-1.432 1.066 0 2.384.147 3.955.44l.72.14v2.883c-1.933-.573-3.468-.86-4.605-.86-2.227 0-3.34.808-3.34 2.426 0 1.043.844 1.92 2.53 2.636l1.67.703c1.888.797 3.224 1.638 4.01 2.523.784.885 1.177 1.99 1.177 3.313 0 1.677-.663 3.054-1.987 4.132-1.325 1.078-3.018 1.617-5.08 1.617zm19.52 0c-1.758 0-3.13-.504-4.113-1.512-.986-1.008-1.478-2.408-1.478-4.2V138.51h-2.39v-2.602h2.39v-3.463l3.463-.334v3.797h4.992v2.602h-4.992v10.582c0 2.496 1.078 3.744 3.234 3.744.456 0 1.013-.076 1.67-.23V155c-1.067.293-1.993.44-2.778.44zM362.715 198v-3.586c-1.406 2.684-3.527 4.025-6.363 4.025-2.297 0-4.105-.838-5.423-2.514-1.32-1.676-1.98-3.967-1.98-6.873 0-3.176.748-5.73 2.242-7.664 1.495-1.935 3.46-2.902 5.898-2.902 2.262 0 4.137.867 5.625 2.602v-10.846h3.48V198h-3.48zm0-14.537c-1.793-1.582-3.492-2.373-5.098-2.373-3.316 0-4.974 2.537-4.974 7.61 0 4.466 1.476 6.698 4.43 6.698 1.92 0 3.802-1.048 5.642-3.146v-8.79zM385.557 198v-3.586c-1.84 2.684-4.073 4.025-6.698 4.025-1.665 0-2.99-.525-3.973-1.574-.985-1.05-1.477-2.464-1.477-4.245v-13.71h3.463v12.586c0 1.43.208 2.446.624 3.05.416.603 1.11.905 2.083.905 2.11 0 4.102-1.387 5.977-4.165V178.91h3.463V198h-3.463zm32.64-2.426c-2.074 1.91-4.072 2.865-5.994 2.865-1.582 0-2.894-.496-3.937-1.486-1.043-.99-1.565-2.24-1.565-3.753 0-2.085.877-3.687 2.63-4.806 1.75-1.12 4.262-1.68 7.53-1.68h.827v-2.302c0-2.215-1.136-3.322-3.41-3.322-1.828 0-3.802.562-5.923 1.687v-2.865c2.332-.95 4.517-1.424 6.556-1.424 2.133 0 3.706.48 4.72 1.442 1.014.96 1.52 2.455 1.52 4.482v8.65c0 1.98.61 2.97 1.83 2.97.15 0 .374-.024.666-.07l.247 1.915c-.786.375-1.653.562-2.602.562-1.616 0-2.647-.956-3.093-2.866zm-.51-1.88v-4.94l-1.16-.035c-1.898 0-3.433.36-4.605 1.08-1.172.72-1.758 1.667-1.758 2.84 0 .83.293 1.534.88 2.108.585.574 1.3.86 2.144.86 1.44 0 2.94-.637 4.5-1.915zm11.047 4.517v-27.966h3.463v12.252c1.418-2.672 3.545-4.008 6.38-4.008 2.298 0 4.106.838 5.424 2.514 1.32 1.676 1.98 3.967 1.98 6.873 0 3.164-.75 5.716-2.243 7.655-1.494 1.94-3.46 2.91-5.897 2.91-2.262 0-4.143-.868-5.643-2.602l-.422 2.373h-3.04zm3.463-4.763c1.782 1.594 3.48 2.39 5.098 2.39 3.328 0 4.992-2.536 4.992-7.61 0-4.477-1.476-6.715-4.43-6.715-1.933 0-3.82 1.05-5.66 3.146v8.79zM451.893 198v-19.09h3.462v3.586c1.83-2.672 4.067-4.008 6.715-4.008 1.653 0 2.97.525 3.955 1.574.985 1.048 1.477 2.458 1.477 4.227V198h-3.463v-12.586c0-1.418-.21-2.43-.625-3.032-.416-.604-1.104-.905-2.065-.905-2.12 0-4.12 1.388-5.995 4.166V198h-3.462zm36.834-.615c-2.32.703-4.307 1.054-5.96 1.054-2.812 0-5.106-.935-6.88-2.804-1.777-1.87-2.664-4.292-2.664-7.27 0-2.893.782-5.266 2.346-7.118 1.564-1.852 3.565-2.777 6.002-2.777 2.31 0 4.093.82 5.353 2.462 1.26 1.64 1.89 3.972 1.89 6.996l-.018 1.072h-12.04c.503 4.535 2.723 6.803 6.66 6.803 1.442 0 3.212-.387 5.31-1.16v2.742zm-11.813-10.987h8.42c0-3.55-1.324-5.326-3.973-5.326-2.66 0-4.14 1.776-4.446 5.326zM495.29 198v-27.756h3.464v12.252c1.828-2.672 4.066-4.008 6.715-4.008 1.65 0 2.97.525 3.954 1.574.984 1.048 1.476 2.458 1.476 4.227V198h-3.462v-12.586c0-1.418-.21-2.43-.625-3.032-.416-.604-1.104-.905-2.065-.905-2.12 0-4.12 1.388-5.994 4.166V198h-3.463zm22.843 0v-19.09h3.463v3.586c1.687-2.672 3.855-4.008 6.504-4.008 2.554 0 4.295 1.336 5.22 4.008 1.64-2.684 3.774-4.025 6.4-4.025 1.686 0 2.993.496 3.92 1.486.924.99 1.387 2.376 1.387 4.157V198h-3.48v-13.342c0-2.18-.86-3.27-2.584-3.27-1.793 0-3.674 1.272-5.643 3.815V198h-3.48v-13.342c0-2.19-.88-3.287-2.637-3.287-1.746 0-3.615 1.278-5.607 3.833V198h-3.463zm48.1-.615c-2.32.703-4.305 1.054-5.958 1.054-2.812 0-5.106-.935-6.88-2.804-1.777-1.87-2.665-4.292-2.665-7.27 0-2.893.783-5.266 2.347-7.118 1.565-1.852 3.566-2.777 6.003-2.777 2.31 0 4.093.82 5.353 2.462 1.26 1.64 1.89 3.972 1.89 6.996l-.018 1.072h-12.04c.503 4.535 2.723 6.803 6.66 6.803 1.442 0 3.212-.387 5.31-1.16v2.742zm-11.81-10.987h8.42c0-3.55-1.325-5.326-3.974-5.326-2.66 0-4.143 1.776-4.448 5.326zM572.798 198v-19.09h3.462v3.586c1.828-2.672 4.066-4.008 6.715-4.008 1.652 0 2.97.525 3.955 1.574.984 1.048 1.476 2.458 1.476 4.227V198h-3.463v-12.586c0-1.418-.208-2.43-.624-3.032-.415-.604-1.103-.905-2.064-.905-2.12 0-4.12 1.388-5.994 4.166V198H572.8z" fill="#FFF"/><path d="M104.977 422v-26.016h14.537v2.76h-10.846v8.72h9.105v2.724h-9.105V422h-3.69zm27.377.44c-2.73 0-4.91-.906-6.54-2.716-1.628-1.81-2.443-4.234-2.443-7.27 0-3.07.818-5.498 2.453-7.285 1.635-1.788 3.853-2.682 6.654-2.682 2.8 0 5.018.894 6.653 2.68 1.635 1.788 2.452 4.205 2.452 7.252 0 3.117-.82 5.566-2.46 7.348-1.642 1.78-3.897 2.67-6.768 2.67zm.052-2.602c3.668 0 5.502-2.473 5.502-7.418 0-4.887-1.81-7.33-5.43-7.33-3.61 0-5.416 2.455-5.416 7.365 0 4.922 1.782 7.383 5.344 7.383zM159.432 422v-3.586c-1.84 2.684-4.073 4.025-6.698 4.025-1.664 0-2.988-.525-3.972-1.574-.985-1.05-1.477-2.464-1.477-4.245v-13.71h3.463v12.586c0 1.43.208 2.446.624 3.05.416.603 1.11.905 2.083.905 2.11 0 4.102-1.387 5.977-4.165V402.91h3.463V422h-3.463zm10.906 0v-19.09h3.463v3.586c1.83-2.672 4.067-4.008 6.716-4.008 1.652 0 2.97.525 3.955 1.574.985 1.048 1.477 2.458 1.477 4.227V422h-3.463v-12.586c0-1.418-.208-2.43-.624-3.032-.416-.604-1.104-.905-2.065-.905-2.12 0-4.12 1.388-5.994 4.166V422h-3.462zm35.094 0v-3.586c-1.407 2.684-3.528 4.025-6.364 4.025-2.297 0-4.104-.838-5.422-2.514-1.32-1.676-1.978-3.967-1.978-6.873 0-3.176.747-5.73 2.24-7.664 1.495-1.935 3.46-2.902 5.9-2.902 2.26 0 4.135.867 5.624 2.602v-10.846h3.48V422h-3.48zm0-14.537c-1.793-1.582-3.493-2.373-5.098-2.373-3.316 0-4.975 2.537-4.975 7.61 0 4.466 1.476 6.698 4.43 6.698 1.92 0 3.802-1.048 5.642-3.146v-8.79zm20.75 12.11c-2.075 1.91-4.073 2.866-5.994 2.866-1.583 0-2.895-.496-3.938-1.486-1.043-.99-1.564-2.24-1.564-3.753 0-2.085.876-3.687 2.627-4.806 1.752-1.12 4.263-1.68 7.533-1.68h.826v-2.302c0-2.215-1.137-3.322-3.41-3.322-1.828 0-3.803.562-5.924 1.687v-2.865c2.332-.95 4.517-1.424 6.557-1.424 2.132 0 3.706.48 4.72 1.442 1.013.96 1.52 2.455 1.52 4.482v8.65c0 1.98.61 2.97 1.828 2.97.152 0 .375-.024.668-.07l.247 1.915c-.785.375-1.652.562-2.602.562-1.617 0-2.648-.956-3.093-2.866zm-.51-1.88v-4.94l-1.16-.034c-1.9 0-3.434.36-4.606 1.08-1.172.72-1.758 1.667-1.758 2.84 0 .83.293 1.534.88 2.108.585.574 1.3.86 2.144.86 1.44 0 2.94-.637 4.5-1.915zm16.777 4.746c-1.76 0-3.13-.504-4.114-1.512s-1.477-2.408-1.477-4.2V405.51h-2.39v-2.602h2.39v-3.463l3.462-.334v3.797h4.992v2.602h-4.992v10.582c0 2.496 1.078 3.744 3.235 3.744.457 0 1.013-.076 1.67-.23V422c-1.067.293-1.993.44-2.778.44zm8.234-.44v-19.09h3.462V422h-3.462zm0-22.553v-3.463h3.462v3.463h-3.462zm18.377 22.992c-2.73 0-4.91-.906-6.54-2.716-1.627-1.81-2.442-4.234-2.442-7.27 0-3.07.818-5.498 2.452-7.285 1.635-1.788 3.853-2.682 6.654-2.682 2.8 0 5.018.894 6.653 2.68 1.635 1.788 2.452 4.205 2.452 7.252 0 3.117-.82 5.566-2.462 7.348-1.64 1.78-3.896 2.67-6.767 2.67zm.053-2.602c3.668 0 5.502-2.473 5.502-7.418 0-4.887-1.81-7.33-5.43-7.33-3.61 0-5.415 2.455-5.415 7.365 0 4.922 1.78 7.383 5.343 7.383zm15.09 2.162v-19.09h3.463v3.586c1.828-2.672 4.066-4.008 6.715-4.008 1.653 0 2.972.525 3.956 1.574.984 1.048 1.476 2.458 1.476 4.227V422h-3.462v-12.586c0-1.418-.208-2.43-.624-3.032-.416-.604-1.105-.905-2.066-.905-2.12 0-4.12 1.388-5.994 4.166V422h-3.463zm34.838 0l1.952-7.805h-5.256l.44-2.18h5.36l1.53-6.064h-5.695l.44-2.16h5.784l1.97-7.806h2.23l-1.95 7.805h4.623l1.95-7.806h2.25l-1.95 7.805h5.256l-.422 2.16h-5.378l-1.53 6.066h5.696l-.44 2.18h-5.783l-1.95 7.804h-2.25l1.95-7.805h-4.623l-1.95 7.805h-2.25zm4.747-9.984h4.623l1.53-6.065h-4.64l-1.513 6.066zM341.725 422v-3.04c1.007-2.356 3.046-4.923 6.117-7.7l1.986-1.776c2.555-2.308 3.832-4.6 3.832-6.873 0-1.452-.436-2.594-1.31-3.426-.872-.832-2.07-1.248-3.594-1.248-1.805 0-3.932.697-6.38 2.09v-3.057c2.308-1.09 4.6-1.636 6.872-1.636 2.438 0 4.395.656 5.87 1.97 1.478 1.31 2.216 3.05 2.216 5.22 0 1.558-.372 2.94-1.116 4.148-.744 1.207-2.13 2.672-4.157 4.394l-1.335 1.143c-2.778 2.354-4.383 4.604-4.817 6.75h11.303V422h-15.485z" fill="#FFF" opacity=".6"/><path d="M383.24 410.5l21.366-21.227c.525-.522.525-1.36 0-1.88-.526-.524-1.368-.524-1.894 0l-22.318 22.17c-.525.522-.525 1.36 0 1.88l22.318 22.163c.258.256.605.394.942.394.337 0 .684-.128.942-.394.525-.522.525-1.36 0-1.88l-21.356-21.227z" opacity=".6" fill-rule="nonzero" fill="#FFF"/><path d="M248.76 587.5l-21.366 21.227c-.525.522-.525 1.36 0 1.88.526.524 1.368.524 1.894 0l22.318-22.17c.525-.522.525-1.36 0-1.88l-22.318-22.163c-.258-.256-.605-.394-.942-.394-.337 0-.684.128-.942.394-.525.522-.525 1.36 0 1.88l21.356 21.227z" opacity=".396" fill-rule="nonzero" fill="#FFF"/><path d="M304.24 793.5l21.366-21.227c.525-.522.525-1.36 0-1.88-.526-.524-1.368-.524-1.894 0l-22.318 22.17c-.525.522-.525 1.36 0 1.88l22.318 22.163c.258.256.605.394.942.394.337 0 .684-.128.942-.394.525-.522.525-1.36 0-1.88l-21.356-21.227z" opacity=".204" fill-rule="nonzero" fill="#FFF"/><path d="M322.76 139.5l-21.366 21.227c-.525.522-.525 1.36 0 1.88.526.524 1.368.524 1.894 0l22.318-22.17c.525-.522.525-1.36 0-1.88l-22.318-22.163c-.258-.256-.605-.394-.942-.394-.337 0-.684.128-.942.394-.525.522-.525 1.36 0 1.88l21.356 21.227z" fill-rule="nonzero" fill="#FFF"/><path d="M277.357 599v-26.016h14.538v2.76H281.05v8.72h9.104v2.723h-9.105V599h-3.693zm27.377.44c-2.73 0-4.91-.906-6.54-2.716-1.628-1.81-2.442-4.234-2.442-7.27 0-3.07.817-5.498 2.452-7.285 1.635-1.788 3.853-2.682 6.653-2.682 2.8 0 5.02.894 6.654 2.68 1.636 1.788 2.453 4.205 2.453 7.252 0 3.117-.82 5.566-2.46 7.348-1.642 1.78-3.898 2.67-6.77 2.67zm.053-2.602c3.668 0 5.502-2.473 5.502-7.418 0-4.887-1.81-7.33-5.433-7.33-3.61 0-5.414 2.455-5.414 7.365 0 4.922 1.782 7.383 5.344 7.383zM331.813 599v-3.586c-1.84 2.684-4.073 4.025-6.698 4.025-1.664 0-2.988-.525-3.972-1.574-.985-1.05-1.477-2.464-1.477-4.245v-13.71h3.463v12.586c0 1.43.207 2.446.623 3.05.416.603 1.11.905 2.083.905 2.11 0 4.1-1.387 5.976-4.165V579.91h3.463V599h-3.462zm10.906 0v-19.09h3.462v3.586c1.828-2.672 4.066-4.008 6.714-4.008 1.653 0 2.97.525 3.956 1.574.984 1.048 1.476 2.458 1.476 4.227V599h-3.463v-12.586c0-1.418-.208-2.43-.624-3.032-.415-.604-1.103-.905-2.064-.905-2.12 0-4.12 1.388-5.994 4.166V599h-3.463zm35.092 0v-3.586c-1.406 2.684-3.527 4.025-6.363 4.025-2.298 0-4.105-.838-5.424-2.514-1.318-1.676-1.977-3.967-1.977-6.873 0-3.176.746-5.73 2.24-7.664 1.494-1.935 3.46-2.902 5.897-2.902 2.262 0 4.137.867 5.625 2.602v-10.846h3.48V599h-3.48zm0-14.537c-1.792-1.582-3.492-2.373-5.097-2.373-3.317 0-4.975 2.537-4.975 7.61 0 4.466 1.477 6.698 4.43 6.698 1.922 0 3.803-1.048 5.642-3.146v-8.79zm20.75 12.11c-2.074 1.91-4.072 2.866-5.994 2.866-1.582 0-2.894-.496-3.937-1.486-1.042-.99-1.564-2.24-1.564-3.753 0-2.085.876-3.687 2.628-4.806 1.752-1.12 4.263-1.68 7.533-1.68h.826v-2.302c0-2.215-1.137-3.322-3.41-3.322-1.83 0-3.803.562-5.924 1.687v-2.865c2.33-.95 4.516-1.424 6.555-1.424 2.133 0 3.706.48 4.72 1.442 1.014.96 1.52 2.455 1.52 4.482v8.65c0 1.98.61 2.97 1.83 2.97.15 0 .374-.024.667-.07l.246 1.915c-.785.375-1.653.562-2.602.562-1.617 0-2.648-.956-3.094-2.866zm-.51-1.88v-4.94l-1.16-.034c-1.898 0-3.433.36-4.605 1.08-1.172.72-1.758 1.667-1.758 2.84 0 .83.292 1.534.878 2.108.586.574 1.3.86 2.145.86 1.44 0 2.94-.637 4.5-1.915zm16.778 4.746c-1.758 0-3.13-.504-4.113-1.512-.985-1.008-1.477-2.408-1.477-4.2V582.51h-2.39v-2.602h2.39v-3.463l3.463-.334v3.797h4.992v2.602h-4.992v10.582c0 2.496 1.078 3.744 3.235 3.744.457 0 1.013-.076 1.67-.23V599c-1.067.293-1.993.44-2.778.44zm8.234-.44v-19.09h3.463V599h-3.463zm0-22.553v-3.463h3.463v3.463h-3.463zm18.377 22.992c-2.73 0-4.91-.906-6.538-2.716-1.63-1.81-2.443-4.234-2.443-7.27 0-3.07.816-5.498 2.45-7.285 1.636-1.788 3.854-2.682 6.654-2.682s5.02.894 6.654 2.68c1.635 1.788 2.452 4.205 2.452 7.252 0 3.117-.82 5.566-2.46 7.348-1.642 1.78-3.897 2.67-6.77 2.67zm.054-2.602c3.668 0 5.502-2.473 5.502-7.418 0-4.887-1.81-7.33-5.432-7.33-3.61 0-5.414 2.455-5.414 7.365 0 4.922 1.782 7.383 5.344 7.383zm15.09 2.162v-19.09h3.463v3.586c1.828-2.672 4.066-4.008 6.715-4.008 1.652 0 2.97.525 3.955 1.574.984 1.048 1.476 2.458 1.476 4.227V599h-3.463v-12.586c0-1.418-.208-2.43-.624-3.032-.416-.604-1.104-.905-2.065-.905-2.12 0-4.118 1.388-5.993 4.166V599h-3.463zm34.838 0l1.95-7.805h-5.255l.44-2.18h5.36l1.53-6.064h-5.695l.44-2.16h5.783l1.968-7.806h2.233l-1.95 7.805h4.622l1.95-7.806h2.25l-1.95 7.805h5.256l-.422 2.16h-5.38l-1.53 6.066h5.697l-.44 2.18h-5.784l-1.95 7.804h-2.25l1.95-7.805h-4.623l-1.95 7.805h-2.25zm4.746-9.984h4.623l1.53-6.065h-4.64l-1.512 6.066zm18.605 9.79v-3.234c2.485.985 4.442 1.477 5.872 1.477 1.652 0 2.997-.485 4.034-1.45 1.036-.968 1.554-2.22 1.554-3.754 0-3.657-2.56-5.485-7.68-5.485h-1.372v-2.337l1.213-.017c4.804 0 7.207-1.693 7.207-5.08 0-2.66-1.582-3.99-4.747-3.99-1.734 0-3.644.486-5.73 1.46v-3.025c2.05-.69 4.043-1.036 5.977-1.036 5.32 0 7.98 2.01 7.98 6.03 0 3.058-1.81 5.238-5.432 6.538 4.196.973 6.293 3.27 6.293 6.89 0 2.45-.808 4.372-2.425 5.767-1.618 1.393-3.838 2.09-6.663 2.09-1.605 0-3.632-.28-6.082-.843z" fill="#FFF" opacity=".396"/><path d="M20.977 805v-26.016h14.537v2.76H24.668v8.72h9.105v2.723h-9.105V805h-3.69zm27.377.44c-2.73 0-4.91-.906-6.54-2.716-1.628-1.81-2.443-4.234-2.443-7.27 0-3.07.818-5.498 2.453-7.285 1.635-1.788 3.853-2.682 6.654-2.682 2.8 0 5.018.894 6.653 2.68 1.635 1.788 2.452 4.205 2.452 7.252 0 3.117-.82 5.566-2.46 7.348-1.642 1.78-3.897 2.67-6.768 2.67zm.052-2.602c3.668 0 5.502-2.473 5.502-7.418 0-4.887-1.81-7.33-5.43-7.33-3.61 0-5.416 2.455-5.416 7.365 0 4.922 1.782 7.383 5.344 7.383zM75.432 805v-3.586c-1.84 2.684-4.073 4.025-6.698 4.025-1.664 0-2.988-.525-3.972-1.574-.985-1.05-1.477-2.464-1.477-4.245v-13.71h3.463v12.586c0 1.43.208 2.446.624 3.05.416.603 1.11.905 2.083.905 2.11 0 4.102-1.387 5.977-4.165V785.91h3.463V805h-3.463zm10.906 0v-19.09H89.8v3.586c1.83-2.672 4.067-4.008 6.716-4.008 1.652 0 2.97.525 3.955 1.574.985 1.048 1.477 2.458 1.477 4.227V805h-3.463v-12.586c0-1.418-.208-2.43-.624-3.032-.416-.604-1.104-.905-2.065-.905-2.12 0-4.12 1.388-5.994 4.166V805H86.34zm35.094 0v-3.586c-1.407 2.684-3.528 4.025-6.364 4.025-2.297 0-4.104-.838-5.422-2.514-1.32-1.676-1.978-3.967-1.978-6.873 0-3.176.747-5.73 2.24-7.664 1.495-1.935 3.46-2.902 5.9-2.902 2.26 0 4.135.867 5.624 2.602v-10.846h3.48V805h-3.48zm0-14.537c-1.793-1.582-3.493-2.373-5.098-2.373-3.316 0-4.975 2.537-4.975 7.61 0 4.466 1.476 6.698 4.43 6.698 1.92 0 3.802-1.048 5.642-3.146v-8.79zm20.75 12.11c-2.075 1.91-4.073 2.866-5.994 2.866-1.583 0-2.895-.496-3.938-1.486-1.043-.99-1.564-2.24-1.564-3.753 0-2.085.876-3.687 2.627-4.806 1.752-1.12 4.263-1.68 7.533-1.68h.826v-2.302c0-2.215-1.137-3.322-3.41-3.322-1.828 0-3.803.562-5.924 1.687v-2.865c2.332-.95 4.517-1.424 6.557-1.424 2.132 0 3.706.48 4.72 1.442 1.013.96 1.52 2.455 1.52 4.482v8.65c0 1.98.61 2.97 1.828 2.97.152 0 .375-.024.668-.07l.247 1.915c-.785.375-1.652.562-2.602.562-1.617 0-2.648-.956-3.093-2.866zm-.51-1.88v-4.94l-1.16-.034c-1.9 0-3.434.36-4.606 1.08-1.172.72-1.758 1.667-1.758 2.84 0 .83.293 1.534.88 2.108.585.574 1.3.86 2.144.86 1.44 0 2.94-.637 4.5-1.915zm16.777 4.746c-1.76 0-3.13-.504-4.114-1.512s-1.477-2.408-1.477-4.2V788.51h-2.39v-2.602h2.39v-3.463l3.462-.334v3.797h4.992v2.602h-4.992v10.582c0 2.496 1.078 3.744 3.235 3.744.457 0 1.013-.076 1.67-.23V805c-1.067.293-1.993.44-2.778.44zm8.234-.44v-19.09h3.462V805h-3.462zm0-22.553v-3.463h3.462v3.463h-3.462zm18.377 22.992c-2.73 0-4.91-.906-6.54-2.716-1.627-1.81-2.442-4.234-2.442-7.27 0-3.07.817-5.498 2.452-7.285 1.635-1.788 3.853-2.682 6.654-2.682 2.8 0 5.018.894 6.653 2.68 1.635 1.788 2.452 4.205 2.452 7.252 0 3.117-.82 5.566-2.462 7.348-1.64 1.78-3.896 2.67-6.767 2.67zm.053-2.602c3.668 0 5.502-2.473 5.502-7.418 0-4.887-1.81-7.33-5.43-7.33-3.61 0-5.415 2.455-5.415 7.365 0 4.922 1.78 7.383 5.343 7.383zm15.09 2.162v-19.09h3.463v3.586c1.828-2.672 4.066-4.008 6.715-4.008 1.653 0 2.972.525 3.956 1.574.984 1.048 1.476 2.458 1.476 4.227V805h-3.462v-12.586c0-1.418-.208-2.43-.624-3.032-.416-.604-1.105-.905-2.066-.905-2.12 0-4.12 1.388-5.994 4.166V805h-3.463zm34.838 0l1.952-7.805h-5.256l.44-2.18h5.36l1.53-6.064h-5.695l.44-2.16h5.784l1.97-7.806h2.23l-1.95 7.805h4.623l1.95-7.806h2.25l-1.95 7.805h5.256l-.422 2.16h-5.378l-1.53 6.066h5.696l-.44 2.18h-5.783l-1.95 7.804h-2.25l1.95-7.805h-4.623l-1.95 7.805h-2.25zm4.747-9.984h4.623l1.53-6.065h-4.64l-1.513 6.066zM268.29 805v-7.365H256.58v-2.62l11.707-16.03h3.25v15.82h3.48v2.83h-3.48V805h-3.25zm-8.315-10.195h8.543v-11.567l-8.543 11.567z" fill="#FFF" opacity=".204"/></g></svg>