<svg width="85" height="85" viewBox="0 0 85 85" xmlns="http://www.w3.org/2000/svg"><g id="chat" fill-rule="nonzero" fill="#FFF"><path d="M72.554 12.46C64.524 4.433 53.857 0 42.497 0S20.47 4.415 12.44 12.443c-15.49 15.487-16.613 40.23-2.813 57-1.905 3.897-4.167 6.496-6.695 7.742-1.55.766-2.422 2.44-2.172 4.148.267 1.727 1.584 3.062 3.31 3.33.945.14 1.96.23 3.01.23 5.218 0 10.702-1.798 15.278-4.948C28.518 83.255 35.446 85 42.498 85c11.36 0 22.025-4.415 30.056-12.443C80.584 64.53 85 53.847 85 42.51c0-11.34-4.416-22.02-12.446-30.05zm-3.4 56.697c-7.124 7.12-16.597 11.037-26.657 11.037-6.73 0-13.337-1.798-19.088-5.18-.375-.214-.802-.34-1.212-.34-.516 0-1.05.18-1.478.5-5.45 4.22-10.933 4.842-13.337 4.895 2.867-2.137 5.27-5.448 7.283-10.058.374-.855.214-1.852-.41-2.564-13.176-14.882-12.48-37.56 1.585-51.623C22.965 8.705 32.44 6 42.5 6c10.077 0 19.53 2.705 26.653 9.825 14.707 14.722 14.707 38.646 0 53.332z"/><path d="M52.717 23c-3.823 0-7.416 1.48-10.124 4.176l-.602.6-.6-.6C38.68 24.48 35.09 23 31.265 23c-3.806 0-7.4 1.48-10.09 4.16C18.47 29.854 16.983 33.43 17 37.22c0 3.806 1.505 7.366 4.195 10.062l19.097 19.013c.46.458 1.08.705 1.682.705.6 0 1.22-.23 1.68-.687l19.15-18.996C65.515 44.62 67 41.044 67 37.257c0-3.808-1.487-7.385-4.177-10.08C60.115 24.48 56.523 23 52.717 23zm6.708 20.952l-17.45 17.304-17.417-17.34c-1.806-1.797-2.797-4.176-2.797-6.713 0-2.538.992-4.917 2.78-6.696 1.788-1.78 4.177-2.767 6.726-2.767 2.548 0 4.938.987 6.743 2.784l2.3 2.29c.938.935 2.442.935 3.38 0l2.284-2.272c1.805-1.798 4.194-2.784 6.743-2.784 2.53 0 4.92.986 6.726 2.784 1.805 1.797 2.796 4.176 2.778 6.696 0 2.537-.99 4.916-2.795 6.714z"/></g></svg>