<?xml version="1.0" encoding="UTF-8"?>
<svg width="50px" height="48px" viewBox="0 0 50 48" version="1.1" xmlns="http://www.w3.org/2000/svg" xmlns:xlink="http://www.w3.org/1999/xlink">
    <!-- Generator: Sketch 47.1 (45422) - http://www.bohemiancoding.com/sketch -->
    <title>006-route</title>
    <desc>Created with Sketch.</desc>
    <defs></defs>
    <g id="Welcome" stroke="none" stroke-width="1" fill="none" fill-rule="evenodd">
        <g id="IPhone-6---Home" transform="translate(-442.000000, -1193.000000)" fill-rule="nonzero" fill="#FFFFFF">
            <g id="Menu" transform="translate(91.000000, 1192.000000)">
                <g id="006-route" transform="translate(351.000000, 1.000000)">
                    <path d="M43.6263927,20.5714286 C44.142882,20.4407551 44.6841403,20.3711469 45.2417678,20.3711469 C45.7993953,20.3711469 46.3406536,20.4407551 46.8571429,20.5714286 L46.8571429,0 L32,0 L32,10.6791586 L43.6263927,10.6791586 L43.6263927,20.5714286 L43.6263927,20.5714286 Z" id="Shape"></path>
                    <path d="M16.8268871,24.056384 C18.09766,22.4868111 18.8571429,20.5050368 18.8571429,18.3530857 C18.8571429,13.274578 14.6274973,9.14285714 9.42862543,9.14285714 C4.22975358,9.14285714 0,13.274578 0,18.3531912 C0,20.5051423 0.759482858,22.4868111 2.0302558,24.0564895 L9.42851743,33.1428571 L16.8268871,24.056384 Z M7.26844104,18.3531912 C7.26844104,17.1897006 8.23745131,16.2431249 9.42851743,16.2431249 C10.6195835,16.2431249 11.5885938,17.1897006 11.5885938,18.3531912 C11.5885938,19.5166818 10.6195835,20.4632575 9.42851743,20.4632575 C8.23745131,20.4632575 7.26844104,19.5166818 7.26844104,18.3531912 Z" id="Shape"></path>
                    <path d="M8.85714286,41.7142857 C7.12417143,41.7142857 5.71428571,43.1241714 5.71428571,44.8571429 C5.71428571,46.5901143 7.12417143,48 8.85714286,48 C10.5901143,48 12,46.5901143 12,44.8571429 C12,43.1241714 10.5901143,41.7142857 8.85714286,41.7142857 Z" id="Shape"></path>
                    <path d="M42.9682625,33.5716607 L25.2179809,33.5716607 C23.5755272,33.5716607 22.239236,32.2577215 22.239236,30.6427411 C22.239236,29.0277606 23.5755272,27.7138214 25.2179809,27.7138214 L38.1595741,27.7138214 C38.0275855,27.2114576 37.9572768,26.685002 37.9572768,26.142625 C37.9572768,25.600248 38.0275855,25.0737924 38.1595741,24.5714286 L25.2179809,24.5714286 C21.8133357,24.5714286 19.0433863,27.2949405 19.0433863,30.6427411 C19.0433863,33.9905417 21.8133357,36.7140536 25.2179809,36.7140536 L42.9682625,36.7140536 C44.6107162,36.7140536 45.9470075,38.027888 45.9470075,39.6429732 C45.9470075,41.2580584 44.6107162,42.5718929 42.9682625,42.5718929 L14.8571429,42.5718929 C14.9891314,43.0742567 15.0594401,43.6007123 15.0594401,44.1430893 C15.0594401,44.6854663 14.9891314,45.2119218 14.8571429,45.7142857 L42.9682625,45.7142857 C46.3729077,45.7142857 49.1428571,42.9907738 49.1428571,39.6429732 C49.1428571,36.2951726 46.3729077,33.5716607 42.9682625,33.5716607 Z" id="Shape"></path>
                    <path d="M41.7142857,27.1428571 C41.7142857,28.8758286 43.1241714,30.2857143 44.8571429,30.2857143 C46.5901143,30.2857143 48,28.8758286 48,27.1428571 C48,25.4098857 46.5901143,24 44.8571429,24 C43.1241714,24 41.7142857,25.4098857 41.7142857,27.1428571 Z" id="Shape"></path>
                </g>
            </g>
        </g>
    </g>
</svg>