<?xml version="1.0" encoding="UTF-8"?>
<svg width="24px" height="27px" viewBox="0 0 24 27" version="1.1" xmlns="http://www.w3.org/2000/svg" xmlns:xlink="http://www.w3.org/1999/xlink">
    <!-- Generator: Sketch 47.1 (45422) - http://www.bohemiancoding.com/sketch -->
    <title>001-spider-web</title>
    <desc>Created with Sketch.</desc>
    <defs></defs>
    <g id="Symbols" stroke="none" stroke-width="1" fill="none" fill-rule="evenodd">
        <g id="001-spider-web" fill-rule="nonzero" fill="#FFFFFF">
            <path d="M23.9997785,7.02830717 C23.9995858,7.0052527 23.9982368,6.98219822 23.9951533,6.95914375 C23.9949606,6.9575375 23.9945752,6.95602573 23.9942861,6.95441947 C23.9912991,6.93382163 23.986963,6.91322378 23.9816634,6.8928149 C23.980218,6.88714577 23.97858,6.88166561 23.9769419,6.87609096 C23.9720277,6.8594615 23.9663427,6.84302102 23.9597904,6.8267695 C23.9575742,6.82128934 23.9556471,6.81580918 23.9532381,6.81032902 C23.944277,6.78982566 23.9343522,6.76960575 23.922693,6.74976379 C23.9110339,6.73001631 23.8981221,6.71140266 23.8844394,6.69363937 C23.8807778,6.6889151 23.8769236,6.68437979 23.8730693,6.67975 C23.8619883,6.66614408 23.8505218,6.65319956 23.8383808,6.64082195 C23.8341411,6.63647562 23.8299015,6.63222377 23.8255654,6.62797192 C23.8105337,6.61361012 23.7949239,6.6000042 23.7786396,6.58743762 C23.7770016,6.58611482 23.7754599,6.58469754 23.7737254,6.58337474 C23.7551286,6.56939088 23.7357609,6.55682431 23.7157187,6.54529707 C23.7140806,6.54435221 23.7126352,6.5431239 23.7109972,6.54217905 L12.2891523,0.0759663771 C12.2876106,0.0751160073 12.2859725,0.074549094 12.2844308,0.0736987241 C12.2640032,0.0623604588 12.2429974,0.0520615346 12.2212208,0.0431798935 C12.2196791,0.0426129802 12.2181374,0.0421405525 12.216692,0.0415736392 C12.1969389,0.0337313391 12.1766076,0.0272118366 12.1558909,0.0214482184 C12.1503022,0.0199364497 12.1446171,0.0185191666 12.1389321,0.017196369 C12.1216842,0.013039005 12.1040509,0.00963752546 12.0862249,0.00699193023 C12.0805399,0.00614156034 12.0748548,0.00510221936 12.0690734,0.00444082055 C12.0464296,0.00179522533 12.0234966,0 12.0000819,0 C11.9766672,0 11.9537343,0.00179522533 11.9310905,0.00444082055 C11.9253091,0.00510221936 11.919624,0.00614156034 11.913939,0.00699193023 C11.896113,0.00963752546 11.8784797,0.0129445195 11.8612318,0.017196369 C11.8555468,0.0186136521 11.8499581,0.0199364497 11.844273,0.0214482184 C11.8235563,0.027117351 11.803225,0.0337313391 11.7834719,0.0415736392 C11.7819302,0.0421405525 11.7803885,0.0426129802 11.7789431,0.0431798935 C11.7570701,0.0520615346 11.7360643,0.0623604588 11.7157331,0.0736987241 C11.7141914,0.074549094 11.7125533,0.0751160073 11.7110116,0.0759663771 L0.289070371,6.54236802 C0.287335949,6.54331287 0.28579424,6.54463567 0.284059818,6.54558053 C0.263921249,6.55720225 0.24436082,6.56986331 0.225667603,6.58394166 C0.224800392,6.58450857 0.224125894,6.58526445 0.22335504,6.58592585 C0.206107174,6.59905934 0.189822877,6.61342115 0.174020363,6.62853883 C0.169780664,6.63260171 0.165637323,6.63685356 0.161493981,6.64110541 C0.149449382,6.65348302 0.137886567,6.66642754 0.126805536,6.68003345 C0.122951264,6.68475773 0.119000636,6.68938752 0.115339078,6.69420629 C0.102427268,6.71121368 0.0901899557,6.72888248 0.079012568,6.7476851 C0.0784344273,6.74862996 0.0777599298,6.74948033 0.077181789,6.75042518 C0.0769890754,6.75070864 0.0767963619,6.7509921 0.0766036483,6.75127555 C0.0651371902,6.77092855 0.0553087976,6.79105397 0.0464439729,6.81136836 C0.0443241235,6.81628161 0.0424933445,6.82138383 0.0405662087,6.82629708 C0.0338212334,6.84302102 0.0279434692,6.85993393 0.0229329161,6.87694133 C0.0213912074,6.882327 0.0198494988,6.88761819 0.0184041469,6.89309836 C0.0131045235,6.91331826 0.00886482471,6.93353817 0.005974121,6.95394705 C0.00568505063,6.95583676 0.00520326668,6.95772647 0.0050105531,6.95971066 C0.00192713581,6.98285962 0.000481783951,7.00610307 0.000289070371,7.02925202 C0.000289070371,7.03066931 0,7.03208659 0,7.03350387 L0,19.9663072 C0,19.9680079 0.000289070371,19.9696141 0.000385427161,19.9713149 C0.000578140742,19.9943694 0.00192713581,20.0174238 0.0050105531,20.0404783 C0.00520326668,20.0420846 0.00558869384,20.0435963 0.00587776421,20.0452026 C0.00886482471,20.0658004 0.0132008803,20.0863983 0.0185005037,20.1068072 C0.0199458556,20.1124763 0.021583921,20.1179565 0.0232219865,20.1235311 C0.0281361828,20.1401606 0.0338212334,20.156601 0.0403734951,20.1728526 C0.0425897013,20.1783327 0.0445168371,20.1838129 0.0469257569,20.189293 C0.0558869384,20.2097964 0.0658116878,20.2300163 0.0774708594,20.2498583 C0.0778562866,20.2505197 0.0783380705,20.2510866 0.0787234977,20.251748 C0.0911535236,20.2727238 0.104932545,20.2929437 0.120060561,20.3122187 C0.128636315,20.3232735 0.138368351,20.3330056 0.14771496,20.3433045 C0.155134432,20.3515247 0.162072121,20.3601229 0.169973378,20.3678707 C0.18192162,20.3795869 0.194929787,20.3899803 0.20774524,20.4004682 C0.214297502,20.4057594 0.220271623,20.4116175 0.227016598,20.4167197 C0.241566473,20.4276801 0.257079917,20.4371286 0.27259336,20.4465772 C0.278182054,20.4499787 0.283288963,20.454136 0.289070371,20.4573485 L0.292346502,20.4592382 C0.292924642,20.4595217 0.293502783,20.4598996 0.294080924,20.4601831 L8.33862028,25.0145753 C8.61545333,25.1712323 8.96879368,25.078164 9.12836053,24.807085 C9.28792737,24.536006 9.19330501,24.189244 8.91676102,24.0326815 L1.73442223,19.9664961 L4.05498281,18.6527691 L11.4219412,22.8234555 L11.4219412,26.4328978 C11.4219412,26.4349764 11.4222303,26.4369606 11.4222303,26.4389448 C11.4223266,26.4511335 11.4231938,26.4633221 11.4241574,26.4755107 C11.4246392,26.4822192 11.4249283,26.4890222 11.4256991,26.4956362 C11.4269518,26.5067855 11.4288789,26.5178403 11.4309024,26.5289896 C11.4322514,26.5366429 11.4333113,26.5443907 11.4349494,26.552044 C11.4369729,26.5612091 11.4396709,26.5703742 11.4421761,26.5795393 C11.4446814,26.5887044 11.446994,26.597964 11.449981,26.6069401 C11.45239,26.61431 11.455377,26.6215854 11.4581714,26.6288608 C11.462122,26.6393487 11.4660726,26.6499311 11.4706014,26.6601355 C11.4733957,26.6663715 11.4766719,26.6724186 11.4796589,26.6786547 C11.4850549,26.6895205 11.4904509,26.7002919 11.496425,26.7107798 C11.4974849,26.712575 11.4982558,26.7145592 11.4993157,26.7163544 C11.5010501,26.7192834 11.5032663,26.7218346 11.5050971,26.7247636 C11.5148292,26.7406372 11.525332,26.7559438 11.5366058,26.7707781 C11.5405564,26.7759748 11.5443143,26.7811715 11.5483613,26.7861792 C11.5621403,26.8030921 11.5766902,26.8194381 11.5923,26.8347448 C11.5966361,26.8389021 11.6012612,26.8425871 11.6056936,26.84665 C11.6178346,26.8577993 11.6304573,26.8684761 11.6435618,26.8785861 C11.6499214,26.8834993 11.6563773,26.8882236 11.6629295,26.8928534 C11.6764195,26.9023964 11.6902949,26.9111836 11.7045557,26.9195928 C11.7094699,26.9224274 11.714095,26.9255454 11.7191055,26.9282855 C11.7388587,26.9390568 11.7592863,26.9487888 11.7803885,26.9572925 C11.7833755,26.9585208 11.7863626,26.9593712 11.7893496,26.960505 C11.8075611,26.967497 11.8262543,26.973544 11.8452366,26.9787408 C11.8509216,26.9802525 11.856703,26.9816698 11.8623881,26.9830871 C11.8791542,26.98715 11.8962093,26.9903625 11.9135536,26.9929136 C11.9197204,26.9938584 11.9257909,26.9948978 11.9319577,26.9956537 C11.9529635,26.9981103 11.974162,26.9995276 11.9957459,26.9997165 C11.9972876,26.9997165 11.9988293,27 12.000371,27 C12.0033581,27 12.0064415,26.9995276 12.0094286,26.9994331 C12.0286999,26.9991496 12.0477786,26.9979213 12.0665681,26.9958426 C12.0741803,26.9949923 12.0817925,26.993575 12.0894047,26.9924412 C12.1049181,26.990079 12.1202389,26.9872445 12.1352705,26.983654 C12.1424009,26.9819533 12.1495313,26.9802525 12.1566617,26.9782683 C12.1754513,26.9730716 12.1939518,26.9670245 12.2118742,26.9600326 C12.2148612,26.9588988 12.2179447,26.9580484 12.2209317,26.9568201 C12.2428047,26.9479385 12.2638105,26.9376395 12.2841418,26.9263013 C12.2856835,26.9254509 12.2873215,26.924884 12.2888633,26.9240336 L23.7108045,20.457632 C23.8896427,20.3563435 23.9998748,20.1691676 23.9998748,19.9666851 L23.9998748,7.0333149 C24.0001639,7.03170865 23.9998748,7.03000791 23.9997785,7.02830717 Z M4.63312355,17.0158071 L4.63312355,9.9692642 L6.95667119,11.2770386 L6.95667119,15.7002849 L4.63312355,17.0158071 Z M1.15628148,8.01246859 L3.47684206,9.31854226 L3.47684206,17.6704974 L1.15628148,18.9842244 L1.15628148,8.01246859 Z M11.4219412,12.4830521 L8.71392997,10.9589058 L11.4219412,9.42587784 L11.4219412,12.4830521 Z M12.5782227,9.42578336 L15.3090705,10.9718503 L12.5782227,12.5178228 L12.5782227,9.42578336 Z M16.465352,10.31716 L12.5782227,8.11649718 L12.5782227,5.4856417 L18.7888996,9.00173223 L16.465352,10.31716 Z M11.4219412,4.17635552 L7.08588564,6.63118443 C6.80934166,6.78774697 6.71462293,7.13450892 6.87428613,7.40558795 C7.03394933,7.67666697 7.38757876,7.76973523 7.66402639,7.6130782 L11.4219412,5.48554721 L11.4219412,8.11649718 L7.554276,10.3061052 L1.7369275,7.03189762 L11.4219412,1.54880703 L11.4219412,4.17635552 Z M8.11295267,11.9279495 L10.8746346,13.4823312 L8.11295267,15.0457835 L8.11295267,11.9279495 Z M11.4219412,14.4817048 L11.4219412,17.5737442 L8.69109341,16.0277718 L11.4219412,14.4817048 Z M12.5782227,14.4411705 L15.3529128,16.0029221 L12.5782227,17.5737442 L12.5782227,14.4411705 Z M12.5782227,18.8829359 L16.5125668,16.6555337 L18.8429558,17.967182 L12.5782227,21.5138859 L12.5782227,18.8829359 Z M17.0434927,15.646995 L17.0434927,13.3108399 C17.0434927,12.9978093 16.784582,12.7439267 16.465352,12.7439267 C16.1461219,12.7439267 15.8872112,12.9978093 15.8872112,13.3108399 L15.8872112,14.9962731 L13.1923045,13.4794966 L19.3670404,9.98372049 L19.3670404,16.9548639 L17.0434927,15.646995 Z M19.9451811,8.34713639 L12.5782227,4.17645 L12.5782227,1.54880703 L22.2657417,7.0333149 L19.9451811,8.34713639 Z M5.21126429,17.9977953 L7.53481193,16.6823676 L11.4219412,18.8830304 L11.4219412,21.5139804 L5.21126429,17.9977953 Z M12.5782227,25.4506261 L12.5782227,22.8230776 L20.0026097,18.6198882 L21.3479432,19.3770953 C21.4387113,19.428212 21.5376698,19.4524003 21.6351828,19.4524003 C21.8355086,19.4524003 22.030342,19.3501669 22.1372017,19.1676209 C22.2960941,18.8960694 22.2004118,18.5495909 21.9235787,18.3937843 L20.5233218,17.6056803 L20.5233218,9.32903016 L22.8438824,8.01530316 L22.8438824,19.6389147 L12.5782227,25.4506261 Z" id="Shape"></path>
        </g>
    </g>
</svg>