<svg width="42" height="42" viewBox="0 0 42 42" xmlns="http://www.w3.org/2000/svg"><g fill-rule="nonzero" id="chat"><path d="M35.85 6.157C31.882 2.19 26.612 0 20.998 0c-5.613 0-10.883 2.18-14.85 6.148-7.656 7.653-8.21 19.88-1.39 28.164-.943 1.927-2.06 3.21-3.31 3.827-.765.377-1.196 1.204-1.073 2.048.132.853.783 1.513 1.637 1.645.466.07.968.114 1.487.114 2.577 0 5.286-.888 7.548-2.445C14.092 41.138 17.514 42 20.998 42c5.614 0 10.884-2.18 14.852-6.148C39.818 31.885 42 26.607 42 21.004c0-5.603-2.182-10.88-6.15-14.847zm-1.68 28.015c-3.52 3.518-8.2 5.453-13.172 5.453-3.325 0-6.59-.888-9.43-2.56-.186-.105-.397-.167-.6-.167-.255 0-.52.088-.73.247-2.692 2.084-5.402 2.392-6.59 2.42 1.417-1.057 2.605-2.693 3.6-4.97.184-.423.104-.916-.204-1.268-6.51-7.353-6.167-18.56.783-25.508C11.347 4.3 16.03 2.964 21 2.964c4.98 0 9.65 1.336 13.17 4.854 7.267 7.274 7.267 19.095 0 26.352z"/><path d="M26.048 11.365c-1.89 0-3.664.73-5.002 2.063l-.297.296-.3-.296c-1.337-1.332-3.112-2.063-5-2.063-1.88 0-3.657.73-4.986 2.055-1.338 1.332-2.073 3.1-2.064 4.97 0 1.882.743 3.64 2.073 4.973l9.436 9.395c.226.226.533.348.83.348.297 0 .603-.113.83-.34l9.463-9.386c1.338-1.332 2.073-3.1 2.073-4.97 0-1.882-.735-3.65-2.064-4.982-1.338-1.332-3.113-2.063-4.994-2.063zm3.315 10.352l-8.623 8.55-8.606-8.567c-.892-.888-1.38-2.064-1.38-3.318 0-1.253.488-2.43 1.372-3.308.883-.88 2.064-1.367 3.323-1.367 1.258 0 2.44.487 3.33 1.376l1.138 1.13c.463.463 1.207.463 1.67 0l1.128-1.122c.892-.887 2.073-1.374 3.332-1.374 1.25 0 2.432.487 3.324 1.375.892.89 1.38 2.065 1.373 3.31 0 1.254-.49 2.43-1.382 3.317z"/></g></svg>