<svg width="43" height="42" viewBox="0 0 43 42" xmlns="http://www.w3.org/2000/svg"><g fill-rule="nonzero" id="foundation"><path d="M38.173 18c.452-.114.926-.175 1.414-.175.487 0 .96.06 1.413.175V0H28v9.344h10.173V18zM14.724 21.05c1.11-1.374 1.776-3.108 1.776-4.99C16.5 11.614 12.8 8 8.25 8S0 11.615 0 16.06c0 1.882.665 3.616 1.776 4.99L8.25 29l6.474-7.95zM6.36 16.06c0-1.02.848-1.847 1.89-1.847 1.042 0 1.89.828 1.89 1.846 0 1.017-.848 1.845-1.89 1.845-1.042 0-1.89-.828-1.89-1.846zM7.75 36.5C6.234 36.5 5 37.734 5 39.25S6.234 42 7.75 42s2.75-1.234 2.75-2.75-1.234-2.75-2.75-2.75zM37.597 29.375h-15.53c-1.438 0-2.608-1.15-2.608-2.563 0-1.413 1.17-2.562 2.606-2.562H33.39c-.116-.44-.177-.9-.177-1.375s.06-.935.177-1.375H22.066c-2.98 0-5.403 2.383-5.403 5.312 0 2.93 2.424 5.313 5.403 5.313h15.53c1.438 0 2.608 1.15 2.608 2.563 0 1.413-1.17 2.562-2.607 2.562H13c.115.44.177.9.177 1.375S13.115 39.56 13 40h24.597C40.577 40 43 37.617 43 34.688c0-2.93-2.424-5.313-5.403-5.313z"/><path d="M36.5 23.75c0 1.516 1.234 2.75 2.75 2.75S42 25.266 42 23.75 40.766 21 39.25 21s-2.75 1.234-2.75 2.75z"/></g></svg>