<svg width="86" height="85" viewBox="0 0 86 85" xmlns="http://www.w3.org/2000/svg"><g id="foundation" fill-rule="nonzero"><path d="M76.346 36.43c.904-.233 1.85-.356 2.827-.356.976 0 1.923.123 2.827.355V0H56v18.91h20.346v17.52zM29.447 42.6C31.67 39.82 33 36.31 33 32.5c0-8.993-7.402-16.31-16.5-16.31C7.402 16.19 0 23.507 0 32.5c0 3.81 1.33 7.32 3.553 10.1L16.5 58.69 29.447 42.6zM12.72 32.5c0-2.06 1.696-3.736 3.78-3.736 2.084 0 3.78 1.676 3.78 3.736 0 2.06-1.696 3.737-3.78 3.737-2.084 0-3.78-1.676-3.78-3.737zM15.5 73.87c-3.033 0-5.5 2.496-5.5 5.565C10 82.503 12.467 85 15.5 85s5.5-2.497 5.5-5.565c0-3.07-2.467-5.566-5.5-5.566zM75.194 59.45H44.13c-2.873 0-5.21-2.327-5.21-5.187 0-2.86 2.337-5.186 5.21-5.186h22.65c-.232-.89-.355-1.822-.355-2.783 0-.96.123-1.892.354-2.782H44.13c-5.957 0-10.804 4.823-10.804 10.75 0 5.93 4.847 10.752 10.805 10.752h31.064c2.875 0 5.213 2.327 5.213 5.187 0 2.86-2.338 5.188-5.213 5.188H26c.23.89.354 1.822.354 2.782s-.123 1.893-.354 2.782h49.194c5.96 0 10.806-4.823 10.806-10.75 0-5.93-4.847-10.752-10.806-10.752z"/><path d="M73 48.065c0 3.07 2.467 5.566 5.5 5.566s5.5-2.496 5.5-5.565c0-3.068-2.467-5.565-5.5-5.565S73 44.997 73 48.065z"/></g></svg>