<svg width="94" height="84" viewBox="0 0 94 84" xmlns="http://www.w3.org/2000/svg"><g id="home" fill-rule="nonzero"><path d="M93 33.53L48.443.477c-.86-.637-2.027-.637-2.885 0L1 33.528c-1.09.808-1.325 2.357-.528 3.46.797 1.102 2.325 1.34 3.413.534L47 5.542l43.115 31.98c.434.323.94.478 1.44.478.752 0 1.494-.35 1.973-1.013.797-1.102.56-2.65-.528-3.458z"/><path d="M81.567 38c-1.344 0-2.434 1.09-2.434 2.432v38.704H59.667V58.01c0-6.706-5.458-12.16-12.167-12.16-6.71 0-12.167 5.455-12.167 12.16v21.127H15.867V40.432c0-1.343-1.09-2.432-2.434-2.432C12.09 38 11 39.09 11 40.432v41.136C11 82.91 12.09 84 13.433 84h24.333c1.28 0 2.327-.988 2.424-2.242.006-.057.01-.12.01-.19v-23.56c0-4.022 3.274-7.295 7.3-7.295s7.3 3.273 7.3 7.296v23.558c0 .07.004.13.01.188C54.906 83.01 55.954 84 57.234 84h24.333C82.91 84 84 82.91 84 81.568V40.432C84 39.09 82.91 38 81.567 38z"/></g></svg>