<svg width="47" height="42" viewBox="0 0 47 42" xmlns="http://www.w3.org/2000/svg"><g fill-rule="nonzero" id="home"><path d="M46.5 16.765L24.22.24c-.428-.32-1.012-.32-1.44 0L.5 16.764c-.544.403-.663 1.177-.264 1.73.398.55 1.163.67 1.707.266L23.5 2.77l21.557 15.99c.218.162.47.24.72.24.377 0 .748-.175.987-.506.4-.552.28-1.326-.264-1.73z"/><path d="M40.783 19c-.672 0-1.216.544-1.216 1.216v19.352h-9.733V29.004c0-3.352-2.73-6.08-6.084-6.08-3.354 0-6.084 2.728-6.084 6.08v10.564H7.933V20.216c0-.672-.545-1.216-1.216-1.216-.672 0-1.217.544-1.217 1.216v20.568c0 .672.545 1.216 1.217 1.216h12.166c.64 0 1.163-.494 1.212-1.12.003-.03.005-.06.005-.096v-11.78c0-2.01 1.637-3.647 3.65-3.647s3.65 1.636 3.65 3.648v11.78c0 .034.002.065.005.093.048.627.572 1.122 1.212 1.122h12.166c.672 0 1.217-.544 1.217-1.216V20.216c0-.672-.545-1.216-1.217-1.216z"/></g></svg>