<svg width="32" height="42" viewBox="0 0 32 42" xmlns="http://www.w3.org/2000/svg"><g id="letter" fill-rule="nonzero"><path d="M28.444 0H3.556C1.596 0 0 1.57 0 3.5v35C0 40.43 1.595 42 3.556 42h24.889C30.405 42 32 40.43 32 38.5v-35C32 1.57 30.404 0 28.444 0zm-7.11 2.965h5.333V9.96l-2.27-.953c-.25-.104-.545-.104-.795 0l-2.27.952V2.964zm8.388 34.647c0 .91-.75 1.65-1.676 1.65H4.58c-.923 0-1.675-.74-1.675-1.65V4.615c0-.91.752-1.65 1.676-1.65h15.086v9.074c0 .285.15.55.398.7.245.15.555.164.815.037l2.976-1.465 2.977 1.465c.118.058.248.087.375.087.154 0 .306-.04.44-.123.248-.15.398-.415.398-.7V2.964c.925 0 1.676.74 1.676 1.65v32.997z"/><path d="M16 9.882c0-.546-.335-.988-.75-.988h-7.5c-.415 0-.75.442-.75.988 0 .547.335.99.75.99h7.5c.415 0 .75-.443.75-.99zM24.1 17.294H7.9c-.497 0-.9.442-.9.988 0 .547.403.99.9.99h16.2c.497 0 .9-.443.9-.99 0-.546-.403-.988-.9-.988zM24.1 24.706H7.9c-.497 0-.9.442-.9.988s.403.988.9.988h16.2c.497 0 .9-.442.9-.988s-.403-.988-.9-.988zM24.1 31.624H7.9c-.497 0-.9.442-.9.988s.403.988.9.988h16.2c.497 0 .9-.442.9-.988s-.403-.988-.9-.988z"/></g></svg>