<svg width="64" height="85" viewBox="0 0 64 85" xmlns="http://www.w3.org/2000/svg"><g id="letter" fill-rule="nonzero"><path d="M56.89 0H7.11C3.19 0 0 3.177 0 7.083v70.834C0 81.823 3.19 85 7.11 85h49.78c3.92 0 7.11-3.177 7.11-7.083V7.083C64 3.177 60.81 0 56.89 0zM42.666 6h10.666v14.155l-4.538-1.926c-.5-.213-1.09-.213-1.59 0l-4.538 1.925V6zm16.777 70.12c0 1.84-1.502 3.338-3.352 3.338H9.162c-1.85 0-3.35-1.498-3.35-3.34V9.34C5.81 7.5 7.31 6 9.16 6h30.17v18.365c0 .578.3 1.115.795 1.42.49.303 1.11.33 1.63.073l5.955-2.966 5.955 2.966c.235.117.494.176.75.176.307 0 .612-.083.88-.25.494-.304.795-.84.795-1.42V6c1.85 0 3.352 1.498 3.352 3.34v66.78z"/><path d="M32 20c0-1.105-.67-2-1.5-2h-15c-.83 0-1.5.895-1.5 2s.67 2 1.5 2h15c.83 0 1.5-.895 1.5-2zM48.2 35H15.8c-.995 0-1.8.895-1.8 2s.805 2 1.8 2h32.4c.995 0 1.8-.895 1.8-2s-.805-2-1.8-2zM48.2 50H15.8c-.995 0-1.8.895-1.8 2s.805 2 1.8 2h32.4c.995 0 1.8-.895 1.8-2s-.805-2-1.8-2zM48.2 64H15.8c-.995 0-1.8.895-1.8 2s.805 2 1.8 2h32.4c.995 0 1.8-.895 1.8-2s-.805-2-1.8-2z"/></g></svg>